# xmcd CD database file
#
# Track frame offsets:
#	150
#	51196
#	85269
#	118677
#	149146
#
# Disc length: 2314 seconds
#
# Revision: 0
# Processed by: cddbd v1.5.1PL2 Copyright (c) Steve Scherf et al.
# Submitted via: CDex 1.51
#
DISCID=47090805
DTITLE=Jackie McLean - New Soil
DYEAR=1959
DGENRE=Jazz
TTITLE0=Hip Strut
TTITLE1=Minor Apprehension
TTITLE2=Greasy
TTITLE3=Sweet Cakes
TTITLE4=Davis Cup
EXTD=YEAR: 1959
EXTT0=
EXTT1=
EXTT2=
EXTT3=
EXTT4=
PLAYORDER=
